<svg id="Layer_1" data-name="Layer 1" xmlns="http://www.w3.org/2000/svg" width="52.9574" height="71.5268" viewBox="0 0 52.9574 71.5268"><title>wfall_5</title><polygon points="34.331 59.729 15.304 59.729 13.443 42.503 35.233 41.088 34.331 59.729" fill="#d7e1ff"/><polygon points="32.961 55.991 13.443 51.719 16.096 31.325 34.447 31.325 32.961 55.991" fill="#d7e1ff"/><rect x="16.2713" y="13.7678" width="16.5735" height="18.6407" fill="#d7e1ff"/><path d="M20.5488,17.4085a12.7751,12.7751,0,0,1,1,3,11.0311,11.0311,0,0,1,0,5,28.7436,28.7436,0,0,0-1,3,6.7452,6.7452,0,0,0,0,3,7.5992,7.5992,0,0,0,1,2c.4569.754,1.1189,1.7916,2,3" fill="none" stroke="#03d2ff" stroke-miterlimit="10" stroke-width="2"/><path d="M13.0751,6.4171l1.5212-.8366A19.4868,19.4868,0,0,0,19.16,8.9268,28.7985,28.7985,0,0,0,23.7233,10.6c3.9859,1.1942,6.9349,2.0777,9.8876.8366,1.0551-.4435,3.1317-2.67,4.5635-4.1829.3-.3176.9708-1.0385,1.5212-.8366.5189.19.6719,1.1057.7605,1.6732a8.9792,8.9792,0,0,1-.7605,5.02,9.452,9.452,0,0,1-3.0424,3.3464c-.9213.6687-5.178,3.7583-9.8876,2.51-2.067-.5479-1.2488-1.1436-5.3241-3.3463-2.4534-1.3262-6.1166-2.93-8.3664-5.02a3.9862,3.9862,0,0,1-1.5212-2.51s-.0115-.131,0-1.6732a4.109,4.109,0,0,1,.7606-.8366,1.8954,1.8954,0,0,1,1.5212,0" fill="#03d2ff" stroke="#0357de" stroke-miterlimit="10" stroke-width="3"/><path d="M16.2713,13.7678a34.9293,34.9293,0,0,0-.3861,7.06c.0245.497.1329,1.6663.3486,3.9848.5043,5.42.544,5.4188.5229,5.9772-.121,3.2137-1.4385,3.3988-2.3785,7.2348a24.66,24.66,0,0,0-.2118,9.0529A37.234,37.234,0,0,0,15.86,54.96" fill="none" stroke="#0057de" stroke-miterlimit="10" stroke-width="3"/><path d="M25.5488,22.9085a16.9246,16.9246,0,0,1,1.6667,4.7826,26.6658,26.6658,0,0,1,0,8.37c-.2657,2.3189-.518,2.8112-.8334,5.9782a14.6985,14.6985,0,0,0,0,4.7826,8.6134,8.6134,0,0,0,1.6667,3.5866" fill="#fff" stroke="#0057de" stroke-miterlimit="10" stroke-width="3"/><path d="M36.0488,16.9085a25.06,25.06,0,0,0-2,3.875,14.9974,14.9974,0,0,0-1,3.1,13.3559,13.3559,0,0,0,0,4.65,18.1414,18.1414,0,0,0,1,3.875" fill="#fff" stroke="#0057de" stroke-miterlimit="10" stroke-width="3"/><path d="M35.1059,34.3116a14.8146,14.8146,0,0,1,.3307,3.78,26.5982,26.5982,0,0,1-.5553,5.1267c-.7452,4.0931-1.2228,4.33-1.4413,6.4738a17.7133,17.7133,0,0,0,.5512,6.3" fill="#fff" stroke="#0057de" stroke-miterlimit="10" stroke-width="3"/><path d="M11.0488,58.9085a31.241,31.241,0,0,0-5,1c-.7831.2535-1.897,2.9569-2,4-.0884.896,1.6114,1.613,2,2a7.97,7.97,0,0,0,5,2c4.3343.3208,8.6549.9052,13,1,7.3143.1595,8.1543.3334,11,0a33.7911,33.7911,0,0,0,8-2,14.9022,14.9022,0,0,0,5-3c1.0759-.999,2.1188-1.9674,2-3-.1678-1.4578-2.61-2.6824-6-3" fill="#fff" stroke="#03d2ff" stroke-miterlimit="10"/><path d="M36.0488,58.9085a25.6238,25.6238,0,0,0,4,1,7.27,7.27,0,0,1,3,1c.5154.3291.9155.5919,1,1,.2471,1.1941-2.4078,2.6706-3,3-1.8263,1.0157-5.07,2.2987-13,2-6.7883-.2557-5.719-1.2451-10-1a12.5514,12.5514,0,0,1-7-1c-.5466-.2844-2.056-1.07-2-2,.0572-.95,1.7179-1.551,3-2a18.7857,18.7857,0,0,1,7-1" fill="#fff" stroke="#00178b" stroke-miterlimit="10"/><path d="M18.5488,58.4278c2.5456-.03,4.7537-.0211,6.5326,0,4.7378.0563,6.6089.2013,8.1658.7468a10.6859,10.6859,0,0,1,1.6331.7468c.9725.5355,1.8582,1.0233,1.6332,1.4935-.1173.2451-.5253.4624-1.6332.7468a27.0133,27.0133,0,0,1-6.5326.7468" fill="#fff" stroke="#03d2ff" stroke-miterlimit="10"/><path d="M20.1388,41.4085a19.0088,19.0088,0,0,1,1.2129,4.6667,14.2409,14.2409,0,0,1,0,4.6666c-.7622,4.056-1.7992,3.6007-2.4259,5.8334a11.3436,11.3436,0,0,0,0,5.8333" fill="#fff" stroke="#0057de" stroke-miterlimit="10" stroke-width="3"/><path d="M29.5488,26.4085a23.7028,23.7028,0,0,1,1.2236,5.3822,51.9573,51.9573,0,0,1-.1073,10.739c-.2747,3.0933-.5334,3.7766-.71,7.1529-.1533,2.9264-.0817,4.7579-.0537,5.3694a41.42,41.42,0,0,0,.585,5.3759" fill="#fff" stroke="#03d2ff" stroke-miterlimit="10" stroke-width="2"/></svg>