<svg id="Layer_1" data-name="Layer 1" xmlns="http://www.w3.org/2000/svg" width="30" height="40" viewBox="0 0 30 40"><title>wfall_6</title><rect x="9" y="4" width="16" height="29" fill="#cce2ec"/><path d="M5.1932,2.3479a6.8294,6.8294,0,0,0,.9282,1.0244A9.5128,9.5128,0,0,0,7.75,4.4858l.0083.0045s.3824.2089.79.398c.6141.2853,1.2888.5352,1.2889.5352,1.7879.6622,2.6839.994,2.7874,1.0269.6537.2077,1.1553.3361,1.5527.42,1.2672.2688,1.4737.0894,2.1644.6079a3.7971,3.7971,0,0,0,1.8578,1.0256,6.4758,6.4758,0,0,0,.93.0013c1.165-.0194,1.5042.0156,1.8592.0025a4.9151,4.9151,0,0,0,2.79-1.0193C24.837,6.6,24.4332,5.895,25.6417,4.422c1.0311-1.2568,1.9371-1.49,1.862-2.0436-.0771-.5685-1.1011-.8362-1.8578-1.0257a12.3346,12.3346,0,0,0-5.5776-.0076c-2.4809.5206-2.2737.96-3.72,1.018-2.06.0828-1.9233-.8309-4.6467-1.0294-.84-.0612-1.2312-.0018-4.648-.0063l-.93-.0013c-1.3212-.045-1.5967-.2385-1.8592-.0025-.4329.389-.2677,1.4392-.0028,2.0461A1.7672,1.7672,0,0,0,5.19,4.3941a1.3818,1.3818,0,0,0,.93.0013" fill="#4c96d6" stroke="#006fa2" stroke-miterlimit="10" stroke-width="2"/><polyline points="13.5 10.5 13.5 15.5 13.5 20.5 13.5 24.5" fill="#006fa2" stroke="#4c96d6" stroke-miterlimit="10" stroke-width="2"/><polyline points="24.5 6 24.5 12.5 24.5 17.5 24.5 20.5" fill="#006fa2" stroke="#4c96d6" stroke-miterlimit="10" stroke-width="2"/><line x1="20" y1="8" x2="20" y2="16" fill="#006fa2" stroke="#4c96d6" stroke-miterlimit="10" stroke-width="2"/><line x1="20" y1="19" x2="20" y2="29" fill="#006fa2" stroke="#006fa2" stroke-miterlimit="10" stroke-width="2"/><line x1="9.5502" y1="6" x2="9.5" y2="17.5" fill="#4c967a" stroke="#006fa2" stroke-miterlimit="10"/><line x1="16.5" y1="8.5" x2="16.5" y2="15.5" fill="#00597a" stroke="#006fa2" stroke-miterlimit="10"/><line x1="16.5" y1="17.5" x2="16.5" y2="29.5" fill="#00597a" stroke="#006fa2" stroke-miterlimit="10"/><path d="M4,32a6.5137,6.5137,0,0,0-1,1,3.3756,3.3756,0,0,0-1,2c.057.9886,1.3159,1.6508,2,2,1.7944.916,3.4381.9766,7,1,3.352.022,3.4834-.28,5,0,1.6744.3086,2.0661.7215,4,1,1.8441.2656,2.818.4058,4,0,1.3169-.4522,2.2889-1.3751,4-3,.43-.4084.772-.76,1-1" fill="#fff" stroke="#006fa2" stroke-miterlimit="10" stroke-width="0.25"/><path d="M7.5,31.5a10.8862,10.8862,0,0,0-2,1c-.6323.4036-.8769.6555-1,1a1.462,1.462,0,0,0,0,1c.3783.8974,2.1271.9718,3,1,4.17.1345,5.1165-.1055,7,0,3.633.2035,3.9936,1.3138,7,1a22.4242,22.4242,0,0,0,4-1,4.6255,4.6255,0,0,0,2-1c.1369-.1266,1.2752-1.2007,1-2-.06-.1734-.3162-.7123-3-1a41.3952,41.3952,0,0,0-6,0c-1.313.0324-2.37.0159-3,0" fill="#fff" stroke="#006fa2" stroke-miterlimit="10"/><path d="M12,34a9.6085,9.6085,0,0,1,2,0c1.75.1839,2.3322.7394,4,1a10.7647,10.7647,0,0,0,3,0,15.2174,15.2174,0,0,0,4-1c.1507-.0564,2.0639-.7772,2-1-.0313-.1091-.5276-.0654-1,0" fill="none" stroke="#006fa2" stroke-miterlimit="10" stroke-width="0.25"/><path d="M6,37h8c1.8569-.0051,1.8062-.02,2,0,1.5749.1622,1.4741.7874,3,1,.9961.1388,1.07-.1234,3,0a4.2729,4.2729,0,0,0,1,0,3.8448,3.8448,0,0,0,2-1" fill="none" stroke="#00597a" stroke-miterlimit="10" stroke-width="0.25"/><polyline points="13.5 28.5 13.5 31.5 13.5 33.5" fill="#00597a" stroke="#006fa2" stroke-miterlimit="10" stroke-width="2"/><line x1="9.5" y1="20.5" x2="9.5" y2="34.5" fill="#fff" stroke="#4c96d6" stroke-miterlimit="10"/><polyline points="24.5 25.5 24.5 29.5 24.5 33.5" fill="#006fa2" stroke="#4c96d6" stroke-miterlimit="10" stroke-width="2"/></svg>